<svg width="30" height="29" viewBox="0 0 30 29" fill="none" xmlns="http://www.w3.org/2000/svg">
<rect x="0.203125" width="29" height="29" rx="14.5" fill="#FEE2E2" fill-opacity="0.1"/>
<g clip-path="url(#clip0_58_451)">
<path d="M12.5922 16.7847L11.9359 16.1284C11.7554 15.9478 11.6916 15.6866 11.7723 15.4445C11.8361 15.2554 11.921 15.009 12.023 14.7265H9.77576C9.5931 14.7265 9.42317 14.6288 9.33184 14.4695C9.24051 14.3102 9.24263 14.1148 9.33609 13.9576L10.4512 12.0779C10.7273 11.6127 11.2265 11.3281 11.766 11.3281H13.514C13.565 11.2431 13.616 11.1645 13.667 11.0881C15.4065 8.52226 17.9979 8.4373 19.5441 8.72192C19.7905 8.76652 19.9817 8.95981 20.0284 9.2062C20.313 10.7546 20.226 13.3438 17.6623 15.0834C17.5879 15.1343 17.5072 15.1853 17.4222 15.2363V16.9844C17.4222 17.5239 17.1376 18.0251 16.6725 18.2991L14.7927 19.4143C14.6355 19.5077 14.4401 19.5098 14.2808 19.4185C14.1215 19.3272 14.0238 19.1594 14.0238 18.9746V16.6976C13.7243 16.8017 13.4631 16.8867 13.2655 16.9504C13.0276 17.0268 12.7685 16.961 12.5901 16.7847H12.5922ZM17.4222 12.1777C17.6476 12.1777 17.8637 12.0882 18.023 11.9289C18.1823 11.7695 18.2719 11.5534 18.2719 11.3281C18.2719 11.1028 18.1823 10.8867 18.023 10.7273C17.8637 10.568 17.6476 10.4785 17.4222 10.4785C17.1969 10.4785 16.9808 10.568 16.8215 10.7273C16.6621 10.8867 16.5726 11.1028 16.5726 11.3281C16.5726 11.5534 16.6621 11.7695 16.8215 11.9289C16.9808 12.0882 17.1969 12.1777 17.4222 12.1777Z" fill="#DC2626"/>
</g>
<defs>
<clipPath id="clip0_58_451">
<path d="M9.26562 8.60938H20.1406V19.4844H9.26562V8.60938Z" fill="white"/>
</clipPath>
</defs>
</svg>
