<svg width="30" height="29" viewBox="0 0 30 29" fill="none" xmlns="http://www.w3.org/2000/svg">
<rect x="0.796875" width="29" height="29" rx="14.5" fill="#DBEAFE" fill-opacity="0.1"/>
<g clip-path="url(#clip0_58_446)">
<path d="M11.2188 9.96875C11.2188 9.5928 10.915 9.28906 10.5391 9.28906C10.1631 9.28906 9.85938 9.5928 9.85938 9.96875V17.1055C9.85938 18.0443 10.6198 18.8047 11.5586 18.8047H20.0547C20.4306 18.8047 20.7344 18.501 20.7344 18.125C20.7344 17.749 20.4306 17.4453 20.0547 17.4453H11.5586C11.3717 17.4453 11.2188 17.2924 11.2188 17.1055V9.96875ZM19.855 11.8082C20.1205 11.5427 20.1205 11.1115 19.855 10.846C19.5895 10.5805 19.1583 10.5805 18.8928 10.846L16.6562 13.0847L15.4371 11.8655C15.1716 11.6 14.7404 11.6 14.4749 11.8655L12.096 14.2444C11.8305 14.5099 11.8305 14.9411 12.096 15.2066C12.3615 15.4721 12.7927 15.4721 13.0582 15.2066L14.957 13.3098L16.1762 14.529C16.4417 14.7945 16.8729 14.7945 17.1384 14.529L19.8572 11.8103L19.855 11.8082Z" fill="#2563EB"/>
</g>
<defs>
<clipPath id="clip0_58_446">
<path d="M9.85938 8.60938H20.7344V19.4844H9.85938V8.60938Z" fill="white"/>
</clipPath>
</defs>
</svg>
