<svg width="1728" height="1117" viewBox="0 0 1728 1117" fill="none" xmlns="http://www.w3.org/2000/svg">
<g clip-path="url(#clip0_71_12238)">
<rect width="1728" height="1117" fill="#141414"/>
<g opacity="0.03" clip-path="url(#clip1_71_12238)">
<g clip-path="url(#clip2_71_12238)">
<g clip-path="url(#clip3_71_12238)">
<path d="M-577.391 479.272C-676.183 533.476 -726.832 661.516 -719.958 839.756C-713.066 1018.03 -649.48 1225.11 -540.925 1422.97C-432.369 1620.82 -291.849 1785.74 -145.208 1887.29C1.44852 1988.88 136.6 2014.93 235.427 1960.71" stroke="#E2E8ED" stroke-width="4.85567" stroke-miterlimit="10"/>
<path d="M-911.686 1626.39C-687.231 2035.48 -173.656 2185.16 235.425 1960.71C644.504 1736.26 794.173 1222.68 569.719 813.592C345.266 404.505 -168.314 254.824 -577.392 479.273C-986.474 703.722 -1136.14 1217.3 -911.686 1626.39Z" stroke="#E2E8ED" stroke-width="4.85567" stroke-miterlimit="10"/>
<path d="M569.718 813.592L-911.72 1626.41" stroke="#E2E8ED" stroke-width="4.85567" stroke-miterlimit="10"/>
<path d="M464.763 870.17C407.733 1032.41 251.088 1246.9 31.7779 1444.79C-314.664 1757.38 -686.289 1910.14 -798.285 1786.01" stroke="#E2E8ED" stroke-width="4.85567" stroke-miterlimit="10"/>
<path d="M464.763 870.17C496.393 1048.31 471.967 1257.85 383.466 1461.28C197.302 1889.15 -201.834 2128.03 -508.052 1994.78" stroke="#E2E8ED" stroke-width="4.85567" stroke-miterlimit="10"/>
<path d="M234.516 1959.13C404.46 1865.89 522.067 1701.36 565.612 1495.84C609.191 1290.3 573.528 1068.41 465.206 870.979" stroke="#E2E8ED" stroke-width="4.85567" stroke-miterlimit="10"/>
<path d="M465.189 870.948L464.741 870.131" stroke="#E2E8ED" stroke-width="4.85567" stroke-miterlimit="10"/>
<path d="M464.759 870.165C297.28 831.102 32.2218 847.993 -252.506 926.653C-702.281 1050.91 -1030.77 1282.29 -986.248 1443.43" stroke="#E2E8ED" stroke-width="4.85567" stroke-miterlimit="10"/>
<path d="M464.76 870.166C331.501 747.782 141.652 655.816 -77.4742 621.17C-538.368 548.318 -954.279 756.626 -1006.41 1086.49" stroke="#E2E8ED" stroke-width="4.85567" stroke-miterlimit="10"/>
<path d="M464.311 869.348C355.989 671.921 187.992 522.627 -8.77815 448.96C-205.516 375.274 -407.43 386.062 -577.408 479.323" stroke="#E2E8ED" stroke-width="4.85567" stroke-miterlimit="10"/>
<path d="M464.757 870.16L464.311 869.348" stroke="#E2E8ED" stroke-width="4.85567" stroke-miterlimit="10"/>
<path d="M642.494 993.376C626.16 934.236 561.866 892.798 464.763 870.164" stroke="#E2E8ED" stroke-width="4.85567" stroke-miterlimit="10"/>
<path d="M662.653 1350.33C690.021 1177.3 611.833 1005.2 464.763 870.164" stroke="#E2E8ED" stroke-width="4.85567" stroke-miterlimit="10"/>
<path d="M456.304 654.028C497.412 699.58 497.821 776.07 464.743 870.13" stroke="#E2E8ED" stroke-width="4.85567" stroke-miterlimit="10"/>
<path d="M166.073 445.262C326.71 515.135 429.865 673.543 464.745 870.131" stroke="#E2E8ED" stroke-width="4.85567" stroke-miterlimit="10"/>
</g>
</g>
</g>
<g opacity="0.03" clip-path="url(#clip4_71_12238)">
<g clip-path="url(#clip5_71_12238)">
<g clip-path="url(#clip6_71_12238)">
<path d="M1940.36 634.817C2005.97 593.139 2035.18 502.762 2022.57 380.371C2009.95 257.959 1957.03 118.218 1873.56 -13.1809C1790.09 -144.579 1686.07 -251.894 1580.64 -315.321C1475.2 -378.769 1381.01 -390.732 1315.38 -349.039" stroke="#E2E8ED" stroke-width="3.34937" stroke-miterlimit="10"/>
<path d="M2119.79 -169.596C1947.2 -441.282 1587.06 -521.621 1315.38 -349.04C1043.7 -176.459 963.369 183.688 1135.95 455.374C1308.54 727.058 1668.69 807.397 1940.36 634.817C2212.04 462.235 2292.37 102.088 2119.79 -169.596Z" stroke="#E2E8ED" stroke-width="3.34937" stroke-miterlimit="10"/>
<path d="M1135.95 455.374L2119.81 -169.61" stroke="#E2E8ED" stroke-width="3.34937" stroke-miterlimit="10"/>
<path d="M1205.7 411.789C1237.79 297.586 1336.14 143.02 1478.36 -2.89316C1703.03 -233.382 1952.09 -354.957 2034.67 -274.463" stroke="#E2E8ED" stroke-width="3.34937" stroke-miterlimit="10"/>
<path d="M1205.7 411.789C1176.06 290.558 1183.61 145.244 1235.54 1.29692C1344.78 -301.461 1608.98 -483.538 1825.66 -405.348" stroke="#E2E8ED" stroke-width="3.34937" stroke-miterlimit="10"/>
<path d="M1316.07 -347.993C1203.21 -276.297 1129.52 -157.846 1108.63 -14.4468C1087.72 128.966 1122.07 280.137 1205.36 411.252" stroke="#E2E8ED" stroke-width="3.34937" stroke-miterlimit="10"/>
<path d="M1205.37 411.273L1205.72 411.815" stroke="#E2E8ED" stroke-width="3.34937" stroke-miterlimit="10"/>
<path d="M1205.7 411.793C1322.72 431.281 1504.43 407.941 1696.95 341.212C2001.07 235.8 2216.97 62.0124 2179.2 -46.9476" stroke="#E2E8ED" stroke-width="3.34937" stroke-miterlimit="10"/>
<path d="M1205.7 411.792C1302.84 490.148 1437.59 545.065 1589.96 559.231C1910.45 589.013 2187.54 427.241 2208.85 197.871" stroke="#E2E8ED" stroke-width="3.34937" stroke-miterlimit="10"/>
<path d="M1206.05 412.335C1289.34 543.451 1411.58 638.796 1550.29 680.811C1688.97 722.84 1827.49 706.491 1940.37 634.781" stroke="#E2E8ED" stroke-width="3.34937" stroke-miterlimit="10"/>
<path d="M1205.71 411.796L1206.05 412.335" stroke="#E2E8ED" stroke-width="3.34937" stroke-miterlimit="10"/>
<path d="M1077.91 334.833C1091.77 374.821 1137.86 400.504 1205.7 411.793" stroke="#E2E8ED" stroke-width="3.34937" stroke-miterlimit="10"/>
<path d="M1048.26 90.0092C1037.07 210.323 1098.5 325.34 1205.7 411.793" stroke="#E2E8ED" stroke-width="3.34937" stroke-miterlimit="10"/>
<path d="M1221.08 560.201C1190.77 530.661 1187.1 478.026 1205.72 411.817" stroke="#E2E8ED" stroke-width="3.34937" stroke-miterlimit="10"/>
<path d="M1430.09 691.084C1316.42 650.084 1238.41 545.599 1205.72 411.816" stroke="#E2E8ED" stroke-width="3.34937" stroke-miterlimit="10"/>
</g>
</g>
</g>
<path d="M155.846 864.651C150.509 886.067 128.818 899.144 107.364 893.803C85.9479 888.449 72.8919 866.759 78.2294 845.343C83.567 823.928 105.244 810.851 126.647 816.191C148.115 821.467 161.171 843.222 155.846 864.651Z" fill="#262C32"/>
<path d="M134.947 834.11H142.166L127.126 849.318C121.678 854.832 112.855 854.832 107.407 849.318L92.3666 834.11H99.5859L111.016 845.675C114.392 849.117 119.974 849.15 123.416 845.775C123.45 845.741 123.483 845.708 123.516 845.675L134.947 834.11ZM99.5191 876.39H92.2998L107.44 861.082C112.888 855.568 121.712 855.568 127.159 861.082L142.3 876.39H135.081L123.583 864.759C120.208 861.316 114.626 861.283 111.183 864.659C111.15 864.692 111.117 864.725 111.083 864.759L99.5191 876.39Z" fill="white"/>
<path d="M342.846 864.651C337.509 886.067 315.818 899.144 294.364 893.803C272.948 888.449 259.892 866.759 265.229 845.343C270.567 823.928 292.244 810.851 313.647 816.191C335.115 821.467 348.171 843.222 342.846 864.651Z" fill="#000008"/>
<path d="M328.743 867.347L320.489 875.971C320.309 876.158 320.092 876.308 319.851 876.41C319.61 876.512 319.349 876.565 319.086 876.564H279.958C279.772 876.564 279.589 876.511 279.433 876.411C279.277 876.312 279.154 876.17 279.079 876.003C279.005 875.836 278.982 875.652 279.014 875.473C279.046 875.293 279.13 875.127 279.258 874.994L287.518 866.37C287.697 866.183 287.913 866.034 288.154 865.932C288.394 865.83 288.654 865.777 288.916 865.777H328.042C328.228 865.777 328.411 865.83 328.567 865.93C328.723 866.03 328.846 866.172 328.921 866.338C328.995 866.505 329.018 866.69 328.986 866.869C328.954 867.048 328.87 867.214 328.743 867.347ZM320.489 849.982C320.309 849.794 320.092 849.645 319.851 849.543C319.61 849.441 319.349 849.388 319.086 849.389H279.958C279.772 849.389 279.589 849.442 279.433 849.541C279.277 849.641 279.154 849.783 279.079 849.95C279.005 850.117 278.982 850.301 279.014 850.48C279.046 850.66 279.13 850.826 279.258 850.959L287.518 859.583C287.697 859.769 287.913 859.918 288.154 860.02C288.394 860.123 288.654 860.175 288.916 860.176H328.042C328.228 860.176 328.411 860.123 328.567 860.023C328.723 859.923 328.846 859.781 328.921 859.614C328.995 859.448 329.018 859.263 328.986 859.084C328.954 858.905 328.87 858.738 328.743 858.605L320.489 849.982ZM279.958 843.787H319.086C319.349 843.787 319.61 843.735 319.851 843.633C320.092 843.531 320.309 843.381 320.489 843.194L328.743 834.57C328.87 834.437 328.954 834.271 328.986 834.092C329.018 833.913 328.995 833.728 328.921 833.561C328.846 833.395 328.723 833.253 328.567 833.153C328.411 833.053 328.228 833 328.042 833H288.916C288.654 833 288.394 833.053 288.154 833.155C287.913 833.257 287.697 833.406 287.518 833.593L279.26 842.217C279.133 842.35 279.048 842.516 279.016 842.695C278.984 842.874 279.007 843.058 279.081 843.225C279.155 843.392 279.278 843.534 279.434 843.634C279.589 843.734 279.772 843.787 279.958 843.787Z" fill="url(#paint0_linear_71_12238)"/>
<path d="M491 895C513.092 895 531 877.091 531 855C531 832.909 513.092 815 491 815C468.909 815 451 832.909 451 855C451 877.091 468.909 895 491 895Z" fill="#00EF8B"/>
<path d="M514.224 843.087H501.492C499.196 843.087 497.284 845 497.284 847.35V848.77H485.973V847.35C485.973 838.77 492.912 831.831 501.492 831.831H514.224V843.087Z" fill="white"/>
<path fill-rule="evenodd" clip-rule="evenodd" d="M485.973 860.027V848.77H481.765C473.186 848.77 466.246 855.71 466.246 864.29C466.246 872.869 473.186 879.809 481.765 879.809C490.344 879.809 497.285 872.869 497.285 864.29L497.284 860.082H508.595V848.77H497.284L497.285 860.027H485.973ZM485.973 860.027V864.29C485.973 866.639 484.06 868.552 481.711 868.552C479.361 868.552 477.448 866.639 477.448 864.29C477.448 861.94 479.361 860.027 481.711 860.027H485.973Z" fill="white"/>
<path d="M485.973 860.027H497.284V848.771H485.973V860.027Z" fill="#16FF99"/>
<path d="M716.846 864.651C711.509 886.067 689.818 899.144 668.364 893.803C646.948 888.449 633.892 866.759 639.229 845.343C644.567 823.928 666.244 810.851 687.647 816.191C709.115 821.467 722.171 843.222 716.846 864.651Z" fill="#ECEFF0"/>
<path d="M678.501 864.7C678.346 864.753 678.257 864.618 678.152 864.556C672.971 861.498 667.797 858.439 662.628 855.377C662.578 855.352 662.526 855.331 662.473 855.314V855.245L662.564 855.192C662.695 855.158 662.823 855.117 662.948 855.068L675.155 849.514C676.243 849.018 677.331 848.53 678.419 848.039H678.497C678.497 848.194 678.497 848.333 678.497 848.48C678.501 853.887 678.502 859.294 678.501 864.7Z" fill="#343535"/>
<path d="M678.509 848.043H678.431C678.431 847.887 678.447 847.732 678.447 847.569C678.447 841.495 678.447 835.422 678.447 829.347C678.429 829.191 678.44 829.033 678.478 828.881H678.511C679.149 829.824 679.706 830.819 680.293 831.793C684.947 839.513 689.598 847.232 694.247 854.949C694.292 855.025 694.328 855.104 694.368 855.188C694.237 855.16 694.107 855.122 693.981 855.075C693.128 854.69 692.272 854.298 691.426 853.905C690.102 853.299 688.778 852.694 687.453 852.09L681.069 849.197C680.219 848.806 679.364 848.425 678.509 848.043Z" fill="#2F3030"/>
<path d="M678.483 828.873C678.445 829.025 678.434 829.183 678.452 829.339C678.452 835.413 678.452 841.486 678.452 847.561C678.452 847.716 678.443 847.872 678.436 848.035C677.349 848.526 676.261 849.014 675.173 849.51L662.966 855.064C662.84 855.112 662.712 855.154 662.582 855.188C662.935 854.455 663.393 853.789 663.811 853.087C668.655 845.036 673.502 836.986 678.353 828.938C678.385 828.894 678.419 828.851 678.457 828.811L678.483 828.873Z" fill="#828384"/>
<path d="M678.509 848.043C679.364 848.425 680.219 848.806 681.072 849.191L687.456 852.083C688.782 852.686 690.107 853.292 691.43 853.899C692.281 854.289 693.139 854.683 693.985 855.069C694.111 855.116 694.24 855.154 694.372 855.182C694.527 855.377 694.297 855.384 694.227 855.426C692.902 856.219 691.57 857.001 690.241 857.787C686.427 860.043 682.615 862.299 678.803 864.555C678.707 864.611 678.602 864.652 678.501 864.7C678.501 859.295 678.502 853.89 678.502 848.484C678.503 848.337 678.507 848.19 678.509 848.043Z" fill="#131313"/>
<path d="M678.447 867.77L688.432 861.885C690.338 860.76 692.243 859.634 694.147 858.507L694.32 858.412C694.337 858.567 694.23 858.65 694.165 858.74C689.813 864.874 685.462 871.007 681.11 877.137C680.287 878.299 679.465 879.468 678.633 880.621C678.59 880.682 678.523 880.966 678.389 880.665C678.495 880.574 678.448 880.453 678.448 880.354C678.449 876.158 678.449 871.963 678.447 867.77Z" fill="#2F3030"/>
<path d="M678.446 867.771C678.446 871.964 678.446 876.156 678.446 880.347C678.446 880.454 678.492 880.575 678.387 880.658C678.165 880.524 678.068 880.285 677.921 880.087C672.875 872.98 667.832 865.872 662.792 858.762C662.728 858.672 662.669 858.576 662.604 858.476C662.734 858.4 662.804 858.504 662.88 858.549C667.983 861.562 673.084 864.578 678.185 867.596C678.28 867.655 678.36 867.715 678.446 867.771Z" fill="#828384"/>
<path d="M678.484 828.873L678.447 828.815C678.515 828.772 678.506 828.836 678.517 828.868L678.484 828.873Z" fill="#393939"/>
<path d="M903.846 864.651C898.509 886.067 876.818 899.144 855.364 893.803C833.948 888.449 820.892 866.759 826.229 845.343C831.567 823.928 853.244 810.851 874.647 816.191C896.115 821.467 909.171 843.222 903.846 864.651Z" fill="#F0B90B"/>
<path d="M880.337 853.043L880.306 846.384H880.33L874.675 843.055L864.984 848.769L855.352 843.055L849.7 846.384V853.043L859.391 858.729V870.129L865.018 873.427L870.646 870.129V858.729L880.337 853.043Z" fill="white"/>
<path d="M864.987 826L849.697 835.015L855.324 838.344L864.987 832.631L874.678 838.344L880.306 835.015L864.987 826Z" fill="white"/>
<path d="M845.659 866.772L845.628 855.4L840.003 852.074V870.132L855.322 879.117V872.459L845.659 866.772Z" fill="white"/>
<path d="M845.628 850.654V844.027L851.283 840.698L845.628 837.369L840 840.698V847.325L845.628 850.654Z" fill="white"/>
<path d="M864.985 837.369L859.357 840.698L864.985 844.027L870.64 840.698L864.985 837.369Z" fill="white"/>
<path d="M855.324 861.086L849.697 857.757V864.415L855.324 867.713V861.086Z" fill="white"/>
<path d="M864.987 878.172L859.36 874.843V881.47L864.987 884.799L870.643 881.47V874.843L864.987 878.172Z" fill="white"/>
<path d="M884.341 837.369L878.714 840.698L884.341 844.027V850.654L889.997 847.325V840.698L884.341 837.369Z" fill="white"/>
<path d="M890 852.071L884.372 855.4L884.341 866.772L874.682 872.455V879.113L890 870.129V852.071Z" fill="white"/>
<path d="M880.307 864.415L874.679 867.713V861.086L880.307 857.757V864.415Z" fill="white"/>
<path d="M1052.4 895.4C1074.49 895.4 1092.4 877.491 1092.4 855.4C1092.4 833.309 1074.49 815.4 1052.4 815.4C1030.31 815.4 1012.4 833.309 1012.4 855.4C1012.4 877.491 1030.31 895.4 1052.4 895.4Z" fill="#0090FF"/>
<path d="M1052.22 847.629C1053.12 843.713 1054.27 840.219 1055.47 837.93C1055.89 836.846 1057.7 834.195 1059.63 832.448C1062.88 829.557 1066.5 828.834 1070.29 831.183C1072.22 832.388 1073 833.653 1072.64 834.797C1072.4 835.701 1071.44 836.364 1070.89 836.304C1070.17 836.364 1069.39 836.243 1068.67 835.701C1068.06 835.219 1067.58 834.617 1067.34 833.894C1066.8 832.629 1066.14 832.207 1065.23 832.328C1064.63 832.388 1063.91 832.81 1063.67 833.051L1063.06 833.713C1062.58 834.195 1062.22 834.737 1061.86 835.279C1060.65 837.267 1059.57 840.882 1058.06 848.412L1068.18 849.918L1067.64 853.954L1057.4 852.448L1056.98 855.099L1056.86 855.761C1056.8 856.123 1056.74 856.484 1056.68 856.906L1067.04 858.412L1066.44 862.448L1055.83 860.882C1054.63 866.063 1053 871.665 1051.86 873.834C1051.44 874.918 1049.63 877.569 1047.7 879.316C1044.45 882.207 1040.83 882.93 1037.04 880.581C1035.11 879.376 1034.33 878.111 1034.69 876.966C1034.93 876.063 1035.89 875.4 1036.44 875.46C1037.16 875.4 1037.94 875.52 1038.67 876.063C1039.21 876.484 1039.69 877.087 1039.99 877.87C1040.53 879.135 1041.2 879.557 1042.1 879.436C1042.7 879.376 1043.42 878.954 1043.67 878.713C1045.95 876.183 1047.76 871.304 1049.99 860.099L1039.87 858.593L1040.41 854.557L1050.65 856.063L1051.08 853.412C1051.2 852.81 1051.26 852.207 1051.38 851.605L1041.07 850.099L1041.68 846.063C1041.68 846.123 1052.22 847.629 1052.22 847.629Z" fill="white"/>
<path d="M1277.85 864.651C1272.51 886.067 1250.82 899.144 1229.36 893.803C1207.95 888.449 1194.89 866.759 1200.23 845.343C1205.57 823.928 1227.24 810.851 1248.65 816.191C1270.11 821.467 1283.17 843.222 1277.85 864.651Z" fill="url(#paint1_linear_71_12238)"/>
<path fill-rule="evenodd" clip-rule="evenodd" d="M1217.16 828.773C1222.8 835.696 1229 844.393 1230.01 845.799C1230.06 845.874 1230.1 845.929 1230.12 845.961C1230.66 846.707 1231.1 847.262 1231.43 847.683C1232.18 848.619 1232.4 848.896 1231.95 849.151C1231.6 849.357 1231.23 849.424 1230.86 849.424C1230.44 849.424 1229.97 849.222 1229.63 848.894C1229.39 848.662 1227.73 846.236 1225.48 842.706C1223.76 840.004 1222.32 837.763 1222.28 837.726C1222.18 837.639 1222.19 837.642 1225.31 843.279C1227.26 846.818 1228.6 849.434 1228.6 849.601C1228.6 849.941 1228.51 850.12 1228.1 850.589C1227.4 851.37 1227.09 852.247 1226.87 854.063C1226.62 856.098 1225.91 857.537 1223.96 859.997C1222.82 861.438 1222.63 861.702 1222.34 862.283C1221.98 863.014 1221.88 863.423 1221.84 864.347C1221.79 865.323 1221.88 865.954 1222.17 866.887C1222.43 867.704 1222.7 868.244 1223.39 869.323C1223.99 870.254 1224.33 870.946 1224.33 871.217C1224.33 871.432 1224.37 871.433 1225.29 871.222C1227.5 870.719 1229.29 869.833 1230.3 868.748C1230.92 868.076 1231.07 867.705 1231.08 866.785C1231.08 866.183 1231.06 866.057 1230.9 865.71C1230.63 865.146 1230.16 864.678 1229.1 863.951C1227.72 862.999 1227.14 862.232 1226.97 861.178C1226.84 860.313 1226.99 859.703 1227.76 858.088C1228.55 856.416 1228.74 855.704 1228.88 854.018C1228.96 852.93 1229.08 852.501 1229.39 852.156C1229.71 851.797 1230 851.675 1230.8 851.564C1232.1 851.385 1232.93 851.044 1233.62 850.409C1234.21 849.859 1234.46 849.328 1234.49 848.529L1234.52 847.924L1234.19 847.535C1232.99 846.124 1216.36 827.665 1216.28 827.665C1216.27 827.665 1216.66 828.163 1217.16 828.773ZM1225 865.451C1225.27 864.967 1225.13 864.345 1224.67 864.04C1224.25 863.753 1223.58 863.889 1223.58 864.263C1223.58 864.377 1223.64 864.46 1223.79 864.534C1224.02 864.657 1224.04 864.796 1223.85 865.079C1223.66 865.367 1223.68 865.619 1223.9 865.791C1224.25 866.067 1224.74 865.915 1225 865.451ZM1233.15 839.044C1232.61 838.96 1232.59 838.951 1232.84 838.912C1233.33 838.837 1234.46 838.939 1235.25 839.127C1237.08 839.566 1238.74 840.692 1240.52 842.691L1240.99 843.222L1241.67 843.112C1244.51 842.65 1247.41 843.017 1249.83 844.147C1250.5 844.458 1251.55 845.077 1251.68 845.236C1251.72 845.287 1251.8 845.613 1251.85 845.961C1252.03 847.165 1251.94 848.088 1251.57 848.778C1251.37 849.153 1251.36 849.272 1251.5 849.593C1251.6 849.849 1251.9 850.039 1252.19 850.038C1252.8 850.037 1253.44 849.055 1253.74 847.688L1253.86 847.145L1254.1 847.415C1255.39 848.897 1256.41 850.919 1256.59 852.358L1256.63 852.733L1256.41 852.392C1256.04 851.805 1255.66 851.405 1255.18 851.083C1254.31 850.502 1253.39 850.305 1250.96 850.175C1248.76 850.058 1247.52 849.868 1246.28 849.462C1244.18 848.771 1243.13 847.851 1240.63 844.547C1239.53 843.079 1238.84 842.268 1238.16 841.614C1236.61 840.128 1235.09 839.349 1233.15 839.044ZM1252.17 842.321C1252.23 841.337 1252.36 840.689 1252.63 840.096C1252.73 839.862 1252.83 839.67 1252.84 839.67C1252.86 839.67 1252.81 839.843 1252.74 840.055C1252.55 840.629 1252.52 841.416 1252.65 842.33C1252.82 843.491 1252.92 843.658 1254.13 844.912C1254.7 845.5 1255.36 846.242 1255.6 846.56L1256.04 847.139L1255.6 846.726C1255.07 846.22 1253.84 845.233 1253.57 845.092C1253.39 844.997 1253.36 844.999 1253.25 845.112C1253.14 845.215 1253.12 845.372 1253.11 846.11C1253.09 847.261 1252.93 848 1252.56 848.739C1252.35 849.138 1252.32 849.053 1252.5 848.602C1252.64 848.265 1252.65 848.117 1252.65 847.003C1252.65 844.764 1252.39 844.226 1250.85 843.304C1250.45 843.071 1249.81 842.734 1249.41 842.555C1249.02 842.377 1248.7 842.222 1248.71 842.211C1248.76 842.167 1250.26 842.61 1250.87 842.846C1251.77 843.196 1251.92 843.241 1252.03 843.199C1252.1 843.171 1252.14 842.955 1252.17 842.321ZM1232.58 840.602C1232.43 842.33 1233.1 844.642 1234.19 846.15C1235.03 847.319 1236.33 848.228 1237.29 848.315C1237.92 848.373 1238.11 848.174 1237.83 847.753C1237.43 847.17 1236.94 846.271 1236.82 845.886C1236.74 845.647 1236.56 844.941 1236.43 844.317C1235.98 842.187 1235.53 841.358 1234.51 840.728C1234.13 840.498 1233.33 840.198 1232.87 840.112L1232.62 840.067L1232.58 840.602ZM1250.86 857.373C1245.79 855.312 1244 853.523 1244 850.505C1244 850.061 1244.02 849.697 1244.04 849.697C1244.06 849.697 1244.25 849.844 1244.47 850.023C1245.5 850.856 1246.65 851.211 1249.84 851.681C1251.71 851.957 1252.77 852.18 1253.74 852.506C1256.83 853.542 1258.75 855.645 1259.2 858.509C1259.34 859.341 1259.26 860.902 1259.04 861.724C1258.87 862.374 1258.36 863.545 1258.22 863.59C1258.18 863.602 1258.14 863.455 1258.13 863.254C1258.08 862.179 1257.54 861.132 1256.64 860.348C1255.61 859.456 1254.23 858.746 1250.86 857.373ZM1247.05 857.147C1247.13 857.361 1247.24 857.848 1247.3 858.23C1247.71 860.67 1246.44 862.641 1243.97 863.405C1243.71 863.486 1242.68 863.689 1241.68 863.857C1239.67 864.196 1238.77 864.436 1237.86 864.876C1237.22 865.188 1236.45 865.655 1236.49 865.702C1236.51 865.717 1236.65 865.681 1236.82 865.623C1237.96 865.219 1239.23 865.009 1241.15 864.908C1241.92 864.868 1242.79 864.804 1243.09 864.766C1244.81 864.548 1246 864.021 1246.92 863.069C1247.44 862.539 1247.74 862.046 1247.99 861.35C1248.15 860.909 1248.17 860.745 1248.17 859.963C1248.17 859.167 1248.15 859.021 1247.98 858.531C1247.76 857.889 1247.5 857.407 1247.17 857.03L1246.93 856.757L1247.05 857.147ZM1249.62 862.397C1248.95 860.935 1248.79 859.523 1249.16 858.207C1249.2 858.066 1249.27 857.951 1249.3 857.951C1249.34 857.951 1249.5 858.038 1249.66 858.144C1249.97 858.355 1250.59 858.71 1252.25 859.623C1254.32 860.762 1255.5 861.645 1256.3 862.653C1257 863.535 1257.44 864.541 1257.64 865.767C1257.76 866.461 1257.69 868.132 1257.52 868.831C1256.96 871.036 1255.67 872.768 1253.82 873.778C1253.55 873.926 1253.31 874.048 1253.29 874.048C1253.26 874.049 1253.36 873.796 1253.5 873.487C1254.12 872.177 1254.2 870.903 1253.73 869.485C1253.44 868.617 1252.85 867.557 1251.67 865.767C1250.3 863.685 1249.96 863.131 1249.62 862.397ZM1236.94 867.192C1234.81 867.542 1232.47 868.681 1230.59 870.285L1230.03 870.763L1230.52 870.84C1233.09 871.245 1233.78 871.604 1235.56 873.458C1236.58 874.524 1236.93 874.761 1237.78 874.981C1239.03 875.302 1240.26 874.711 1240.68 873.586C1240.87 873.083 1240.85 872.251 1240.63 871.833C1240.12 870.837 1238.62 870.516 1237.89 871.245C1237.29 871.852 1237.46 872.767 1238.21 872.924C1238.39 872.96 1238.38 872.953 1238.17 872.856C1237.84 872.706 1237.7 872.498 1237.7 872.166C1237.69 871.39 1238.57 870.954 1239.39 871.327C1239.99 871.6 1240.23 871.957 1240.23 872.583C1240.23 873.547 1239.42 874.273 1238.47 874.154C1237.97 874.091 1237.35 873.764 1237.02 873.386C1236.18 872.434 1236.51 870.932 1237.67 870.355C1238.56 869.916 1239.74 870.025 1240.65 870.629C1241.7 871.323 1242.14 871.957 1243.05 874.039C1243.34 874.717 1243.72 875.48 1243.89 875.735C1244.75 877.03 1245.77 877.665 1247.01 877.665C1247.69 877.665 1248.2 877.539 1248.85 877.214C1249.33 876.972 1250 876.512 1249.96 876.463C1249.94 876.449 1249.74 876.512 1249.51 876.602C1248.17 877.133 1246.79 877.097 1246 876.508C1245.5 876.137 1245.09 875.399 1244.88 874.475C1244.85 874.315 1244.73 873.609 1244.62 872.906C1244.34 871.124 1244.08 870.323 1243.46 869.404C1242.82 868.463 1241.6 867.674 1240.24 867.321C1239.39 867.101 1237.86 867.041 1236.94 867.192ZM1233.95 853.414C1234.14 852.727 1234.73 852.072 1235.34 851.882C1235.73 851.762 1236.54 851.839 1236.92 852.033C1237.65 852.409 1238.18 853.266 1238.06 853.884C1237.92 854.639 1236.71 855.242 1235.32 855.252C1234.61 855.257 1234.35 855.161 1234.07 854.794C1233.91 854.567 1233.84 853.832 1233.95 853.414ZM1236.73 852.302C1237.09 852.527 1237.19 852.86 1236.97 853.168C1236.83 853.381 1236.37 853.583 1236.03 853.583C1235.53 853.583 1234.98 853.222 1234.98 852.891C1234.98 852.228 1236.03 851.872 1236.73 852.302Z" fill="#FF007A"/>
<path d="M1464.81 864.654C1459.47 886.069 1437.78 899.147 1416.33 893.806C1394.91 888.452 1381.86 866.762 1387.19 845.346C1392.53 823.931 1414.21 810.853 1435.61 816.194C1457.08 821.47 1470.14 843.225 1464.81 864.654Z" fill="#F7931A"/>
<path d="M1444.94 849.746C1445.66 844.412 1441.61 841.628 1436.05 839.746L1437.78 832.53L1433.39 831.471L1431.71 838.53C1430.55 838.255 1429.37 837.981 1428.21 837.746L1429.88 830.687L1425.44 829.628L1423.71 836.844C1422.77 836.621 1421.82 836.451 1420.88 836.229L1414.82 834.778L1413.71 839.445C1413.71 839.445 1416.99 840.164 1416.88 840.229C1418.65 840.674 1418.99 841.837 1418.93 842.726L1416.98 850.948C1417.1 851.001 1417.26 851.001 1417.43 851.118C1417.26 851.066 1417.15 851.066 1416.98 851.014L1414.31 862.517C1414.09 863.066 1413.53 863.85 1412.31 863.576C1412.37 863.628 1409.09 862.791 1409.09 862.791L1407.01 867.85L1412.73 869.184C1413.79 869.458 1414.85 869.68 1415.84 869.968L1414.12 877.249L1418.51 878.308L1420.24 871.092C1421.46 871.419 1422.63 871.706 1423.74 871.981L1422.01 879.144L1426.41 880.203L1428.13 872.922C1435.63 874.255 1441.24 873.641 1443.52 866.804C1445.35 861.353 1443.35 858.242 1439.35 856.19C1442.27 855.523 1444.39 853.628 1444.94 849.746ZM1435.06 863.903C1433.78 869.353 1424.56 866.517 1421.61 865.798L1423.88 856.125C1426.89 856.857 1436.39 858.19 1435.06 863.903ZM1436.27 849.746C1435.11 854.687 1427.44 852.308 1424.94 851.693L1427.06 842.922C1429.5 843.523 1437.5 844.582 1436.27 849.746Z" fill="white"/>
<path d="M1651.85 864.651C1646.51 886.067 1624.82 899.144 1603.36 893.803C1581.95 888.449 1568.89 866.759 1574.23 845.343C1579.57 823.928 1601.24 810.851 1622.65 816.191C1644.11 821.467 1657.17 843.222 1651.85 864.651Z" fill="#213147"/>
<path d="M1588.22 843.642V867.159C1588.22 868.601 1589.06 870.042 1590.27 870.758L1610.67 882.517C1611.98 883.233 1613.55 883.233 1614.87 882.517L1635.27 870.758C1636.59 870.042 1637.31 868.601 1637.31 867.159V843.642C1637.31 842.2 1636.47 840.758 1635.27 840.042L1614.86 828.284C1613.54 827.567 1611.98 827.567 1610.66 828.284L1590.26 840.042C1588.94 840.758 1588.22 842.2 1588.22 843.642Z" fill="#213147"/>
<path d="M1622.06 846.525C1622.3 846.044 1622.9 846.044 1623.02 846.525L1633.09 874.245L1627.33 877.608L1619.17 855.165C1619.05 854.929 1619.05 854.684 1619.17 854.449L1622.06 846.525Z" fill="#12AAFF"/>
<path d="M1614.38 867.885L1617.26 859.961C1617.5 859.48 1618.1 859.48 1618.21 859.961L1625.18 878.918L1619.42 882.282L1614.38 868.601C1614.26 868.365 1614.26 868.12 1614.38 867.885Z" fill="#12AAFF"/>
<path d="M1612.7 829.122C1612.82 829.122 1612.94 829.122 1613.06 829.245L1635.13 841.964C1635.37 842.087 1635.49 842.323 1635.49 842.681V868.12C1635.49 868.356 1635.37 868.723 1635.13 868.836L1613.06 881.556C1612.94 881.679 1612.82 881.679 1612.7 881.679C1612.58 881.679 1612.47 881.679 1612.34 881.556L1590.27 868.836C1590.03 868.714 1589.91 868.478 1589.91 868.12V842.681C1589.91 842.445 1590.03 842.078 1590.27 841.964L1612.34 829.245C1612.46 829.122 1612.58 829.122 1612.7 829.122ZM1612.7 825.4C1611.86 825.4 1611.14 825.636 1610.42 826.003L1588.34 838.723C1586.9 839.562 1586.06 841.003 1586.06 842.681V868.12C1586.06 869.684 1586.9 871.239 1588.34 872.078L1610.42 884.797C1611.14 885.155 1611.86 885.4 1612.7 885.4C1613.54 885.4 1614.26 885.165 1614.98 884.797L1637.06 872.078C1638.5 871.239 1639.34 869.797 1639.34 868.12V842.681C1639.34 841.116 1638.5 839.562 1637.06 838.723L1615.09 826.003C1614.38 825.645 1613.65 825.4 1612.81 825.4H1612.7Z" fill="#9DCCED"/>
<path d="M1598.18 877.599L1600.22 872.078L1604.3 875.441L1600.46 879.04L1598.18 877.599Z" fill="#213147"/>
<path d="M1614.97 840.881H1620.62L1620.49 840.768C1620.85 840.768 1621.1 841.126 1620.97 841.484L1606.1 882.282L1600.34 878.918L1614.01 841.484C1614.13 841.116 1614.61 840.881 1614.97 840.881Z" fill="white"/>
<path d="M1605.26 840.881H1610.78C1611.14 840.881 1611.38 841.239 1611.26 841.597L1598.06 877.721L1592.3 874.358L1604.3 841.484C1604.42 841.116 1604.9 840.881 1605.26 840.881Z" fill="white"/>
</g>
<defs>
<linearGradient id="paint0_linear_71_12238" x1="283.221" y1="877.603" x2="323.056" y2="831.507" gradientUnits="userSpaceOnUse">
<stop offset="0.08" stop-color="#9945FF"/>
<stop offset="0.3" stop-color="#8752F3"/>
<stop offset="0.5" stop-color="#5497D5"/>
<stop offset="0.6" stop-color="#43B4CA"/>
<stop offset="0.72" stop-color="#28E0B9"/>
<stop offset="0.97" stop-color="#19FB9B"/>
</linearGradient>
<linearGradient id="paint1_linear_71_12238" x1="1257" y1="891.5" x2="1215.5" y2="815" gradientUnits="userSpaceOnUse">
<stop stop-color="#FAE6F2"/>
<stop offset="1" stop-color="#FDF8FC"/>
</linearGradient>
<clipPath id="clip0_71_12238">
<rect width="1728" height="1117" fill="white"/>
</clipPath>
<clipPath id="clip1_71_12238">
<rect width="1884" height="1884" fill="white" transform="translate(201.737 -58.9819) rotate(61.2478)"/>
</clipPath>
<clipPath id="clip2_71_12238">
<rect width="1884" height="1884" fill="white" transform="translate(201.737 -58.9819) rotate(61.2478)"/>
</clipPath>
<clipPath id="clip3_71_12238">
<rect width="1884" height="1884" fill="white" transform="translate(201.737 -58.9819) rotate(61.2478)"/>
</clipPath>
<clipPath id="clip4_71_12238">
<rect width="1299.56" height="1299.56" fill="white" transform="translate(1427.82 1039.76) rotate(-122.425)"/>
</clipPath>
<clipPath id="clip5_71_12238">
<rect width="1299.56" height="1299.56" fill="white" transform="translate(1427.82 1039.76) rotate(-122.425)"/>
</clipPath>
<clipPath id="clip6_71_12238">
<rect width="1299.56" height="1299.56" fill="white" transform="translate(1427.82 1039.76) rotate(-122.425)"/>
</clipPath>
</defs>
</svg>
