<svg width="29" height="29" viewBox="0 0 29 29" fill="none" xmlns="http://www.w3.org/2000/svg">
<rect width="29" height="29" rx="14.5" fill="#DCFCE7" fill-opacity="0.1"/>
<g clip-path="url(#clip0_58_441)">
<path d="M14.5 8.60938C14.5977 8.60938 14.6954 8.63062 14.7846 8.67097L18.7842 10.3681C19.2515 10.5656 19.5998 11.0265 19.5977 11.583C19.587 13.69 18.7204 17.5451 15.0608 19.2975C14.706 19.4674 14.294 19.4674 13.9393 19.2975C10.2796 17.5451 9.41297 13.69 9.40235 11.583C9.40023 11.0265 9.74857 10.5656 10.2159 10.3681L14.2175 8.67097C14.3046 8.63062 14.4023 8.60938 14.5 8.60938ZM14.5 10.0282V18.057C17.4312 16.6382 18.2192 13.4968 18.2383 11.6127L14.5 10.0282Z" fill="#16A34A"/>
</g>
<defs>
<clipPath id="clip0_58_441">
<path d="M9.0625 8.60938H19.9375V19.4844H9.0625V8.60938Z" fill="white"/>
</clipPath>
</defs>
</svg>
