<svg width="32" height="32" viewBox="0 0 32 32" fill="none" xmlns="http://www.w3.org/2000/svg">
<path d="M29.2658 17.3238L29.0018 18.7065C28.7565 20.0012 27.5458 20.8705 26.1751 20.7385L23.4458 20.4745C22.2578 20.3598 21.2445 19.5145 20.9418 18.3865L20.1005 15.2465C18.8538 14.7358 17.4805 14.5025 15.9805 14.5452C14.5358 14.5767 13.1122 14.8977 11.7938 15.4892L11.2711 18.4292C11.0738 19.5438 10.1551 20.3745 8.99112 20.4918L6.27779 20.7638C4.92312 20.8998 3.62579 20.0385 3.24179 18.7505L2.82845 17.3665C2.41779 15.9918 2.78445 14.5438 3.78979 13.5665C6.16445 11.2598 10.1231 10.1025 15.6658 10.0945C21.2178 10.0878 25.2991 11.2372 27.9125 13.5452C29.0125 14.5158 29.5258 15.9532 29.2658 17.3238Z" fill="white"/>
</svg>
