<svg width="32" height="32" viewBox="0 0 32 32" fill="none" xmlns="http://www.w3.org/2000/svg">
<path d="M10.2253 19.8973C10.4768 19.6545 10.8136 19.5201 11.1632 19.5231C11.5128 19.5261 11.8472 19.6664 12.0944 19.9136C12.3416 20.1608 12.4819 20.4952 12.4849 20.8448C12.4879 21.1944 12.3535 21.5312 12.1107 21.7827L8.55333 25.3387H10.6667C10.9934 25.3387 11.3088 25.4588 11.5529 25.6761C11.797 25.8934 11.9528 26.1928 11.9907 26.5173L12 26.672C12 27.0256 11.8595 27.3648 11.6095 27.6148C11.3594 27.8649 11.0203 28.0053 10.6667 28.0053H5.33333C4.97971 28.0053 4.64057 27.8649 4.39052 27.6148C4.14048 27.3648 4 27.0256 4 26.672V21.3387C4 20.985 4.14048 20.6459 4.39052 20.3959C4.64057 20.1458 4.97971 20.0053 5.33333 20.0053C5.68696 20.0053 6.02609 20.1458 6.27614 20.3959C6.52619 20.6459 6.66667 20.985 6.66667 21.3387V23.4547L10.2253 19.8973ZM21.34 28.0053C20.9864 28.0053 20.6472 27.8649 20.3972 27.6148C20.1471 27.3648 20.0067 27.0256 20.0067 26.672C20.0067 26.3184 20.1471 25.9792 20.3972 25.7292C20.6472 25.4791 20.9864 25.3387 21.34 25.3387H23.4507L19.8973 21.7827C19.6678 21.5531 19.5299 21.2476 19.5095 20.9236C19.4891 20.5995 19.5877 20.2792 19.7867 20.0227L19.8973 19.8973C20.1474 19.6474 20.4864 19.507 20.84 19.507C21.1936 19.507 21.5326 19.6474 21.7827 19.8973L25.34 23.4573V21.3387C25.34 21.0121 25.4599 20.6969 25.677 20.4528C25.894 20.2088 26.193 20.0529 26.5173 20.0147L26.6733 20.0053C27.027 20.0053 27.3661 20.1458 27.6161 20.3959C27.8662 20.6459 28.0067 20.985 28.0067 21.3387V26.672C28.0067 27.0256 27.8662 27.3648 27.6161 27.6148C27.3661 27.8649 27.027 28.0053 26.6733 28.0053H21.34ZM10.6667 4C11.0203 4 11.3594 4.14048 11.6095 4.39052C11.8595 4.64057 12 4.97971 12 5.33333C12 5.68696 11.8595 6.02609 11.6095 6.27614C11.3594 6.52619 11.0203 6.66667 10.6667 6.66667H8.556L12.1093 10.224C12.3389 10.4536 12.4768 10.7591 12.4972 11.0831C12.5176 11.4071 12.419 11.7275 12.22 11.984L12.1093 12.1093C11.8593 12.3593 11.5202 12.4997 11.1667 12.4997C10.8131 12.4997 10.474 12.3593 10.224 12.1093L6.66667 8.54933V10.6667C6.66662 10.9932 6.54673 11.3085 6.32971 11.5525C6.1127 11.7965 5.81367 11.9525 5.48933 11.9907L5.33333 12C4.97971 12 4.64057 11.8595 4.39052 11.6095C4.14048 11.3594 4 11.0203 4 10.6667V5.33333C4 4.97971 4.14048 4.64057 4.39052 4.39052C4.64057 4.14048 4.97971 4 5.33333 4H10.6667ZM26.6733 4C27.027 4 27.3661 4.14048 27.6161 4.39052C27.8662 4.64057 28.0067 4.97971 28.0067 5.33333V10.6667C28.0067 11.0203 27.8662 11.3594 27.6161 11.6095C27.3661 11.8595 27.027 12 26.6733 12C26.3197 12 25.9806 11.8595 25.7305 11.6095C25.4805 11.3594 25.34 11.0203 25.34 10.6667V8.54933L21.7827 12.1093C21.5531 12.3389 21.2476 12.4768 20.9236 12.4972C20.5995 12.5176 20.2792 12.419 20.0227 12.22L19.8973 12.1093C19.6474 11.8593 19.507 11.5202 19.507 11.1667C19.507 10.8131 19.6474 10.474 19.8973 10.224L23.452 6.66667H21.34C21.0134 6.66662 20.6982 6.54673 20.4542 6.32971C20.2101 6.1127 20.0542 5.81367 20.016 5.48933L20.0067 5.33333C20.0067 4.97971 20.1471 4.64057 20.3972 4.39052C20.6472 4.14048 20.9864 4 21.34 4H26.6733Z" fill="white"/>
</svg>
