<svg width="32" height="32" viewBox="0 0 32 32" fill="none" xmlns="http://www.w3.org/2000/svg">
<path d="M24.3337 14.6667C24.5753 14.6668 24.8088 14.7543 24.9909 14.9131C25.173 15.0719 25.2915 15.2913 25.3243 15.5307L25.3337 15.6667V16.3334C25.3339 18.6049 24.4752 20.7924 22.9298 22.4572C21.3845 24.1219 19.2668 25.1408 17.0017 25.3094L17.0003 28.3334C17.0002 28.5868 16.904 28.8307 16.731 29.0158C16.5581 29.2009 16.3213 29.3135 16.0685 29.3308C15.8157 29.3481 15.5658 29.2687 15.3693 29.1088C15.1727 28.9489 15.0442 28.7204 15.0097 28.4694L15.0003 28.3334V25.3094C12.789 25.1452 10.7162 24.1704 9.17927 22.572C7.64239 20.9736 6.74968 18.8641 6.67233 16.6481L6.66699 16.3334V15.6667C6.66707 15.4134 6.76332 15.1695 6.93629 14.9844C7.10926 14.7992 7.34606 14.6866 7.59883 14.6694C7.85161 14.6521 8.10151 14.7314 8.29806 14.8913C8.4946 15.0512 8.62312 15.2797 8.65766 15.5307L8.66699 15.6667V16.3334C8.66684 18.1402 9.36529 19.877 10.6162 21.1806C11.8672 22.4843 13.5738 23.2537 15.379 23.3281L15.667 23.3334H16.3337C18.1404 23.3336 19.8773 22.6351 21.1809 21.3842C22.4845 20.1332 23.254 18.4266 23.3283 16.6214L23.3337 16.3334V15.6667C23.3337 15.4015 23.439 15.1472 23.6266 14.9596C23.8141 14.7721 24.0684 14.6667 24.3337 14.6667ZM16.0003 2.66675C17.4148 2.66675 18.7714 3.22865 19.7716 4.22885C20.7718 5.22904 21.3337 6.58559 21.3337 8.00008V16.0001C21.3337 17.4146 20.7718 18.7711 19.7716 19.7713C18.7714 20.7715 17.4148 21.3334 16.0003 21.3334C14.5858 21.3334 13.2293 20.7715 12.2291 19.7713C11.2289 18.7711 10.667 17.4146 10.667 16.0001V8.00008C10.667 6.58559 11.2289 5.22904 12.2291 4.22885C13.2293 3.22865 14.5858 2.66675 16.0003 2.66675Z" fill="white"/>
</svg>
